<svg xmlns="http://www.w3.org/2000/svg" viewBox="0 0 21.12 20.9"><defs><style>.cls-1{fill:#ff4157;}</style></defs><g id="katman_2" data-name="katman 2"><g id="Object"><path class="cls-1" d="M20.83,7.58H7l-1-5a.29.29,0,0,0-.28-.23H.28A.29.29,0,0,0,0,2.62a.28.28,0,0,0,.28.28H5.44L7.93,15.26v5.36a.29.29,0,0,0,.29.28h7.44a.29.29,0,0,0,0-.57H8.5V15.52h7.73a.27.27,0,0,0,.24-.14L21.07,8a.26.26,0,0,0,0-.28A.28.28,0,0,0,20.83,7.58ZM7.07,8.15h4.41V9.92H7.43ZM8,12.8l-.46-2.31h3.93v2.26H8.16A.3.3,0,0,0,8,12.8ZM8.45,15l-.33-1.64h3.36V14.9a.09.09,0,0,0,0,0Zm7.42,0H12a.09.09,0,0,0,0,0V13.32h3.83Zm0-2.2H12V10.49h3.83Zm0-2.83H12V8.15h3.83Zm.57,4.45v-1h.65Zm1-1.62h-1V10.49h2.42Zm1.76-2.82H16.44V8.15h3.88Z"/><path class="cls-1" d="M12.9,0a.29.29,0,0,0-.29.28V4.87l-2.14-2a.28.28,0,0,0-.39.41L12.7,5.73l.05,0,0,0,.11,0,.11,0,.09-.06h0l2.48-2.48a.28.28,0,0,0-.4-.4l-2,2V.28A.29.29,0,0,0,12.9,0Z"/></g></g></svg>