<svg xmlns="http://www.w3.org/2000/svg" viewBox="0 0 14.7 20.79"><defs><style>.cls-1{fill:#ff4157;}</style></defs><g id="katman_2" data-name="katman 2"><g id="Object"><path class="cls-1" d="M14.13,5H6a.57.57,0,0,0-.57.57V12.6H.57V.57H8.68v3a.29.29,0,0,0,.57,0V.28A.29.29,0,0,0,9,0H.28A.29.29,0,0,0,0,.28V15.55a.29.29,0,0,0,.28.28H5.46v4.4a.57.57,0,0,0,.57.57h8.1a.58.58,0,0,0,.57-.57V5.53A.58.58,0,0,0,14.13,5Zm0,.57v12H6v-12ZM.57,15.26V13.17H5.46v.76H4a.29.29,0,1,0,0,.57H5.46v.77Zm5.45,5V18.13h8.11v2.09Z"/><path class="cls-1" d="M10.7,18.89H9.46a.29.29,0,0,0,0,.57H10.7a.29.29,0,0,0,0-.57Z"/></g></g></svg>