<svg xmlns="http://www.w3.org/2000/svg" viewBox="0 0 20.8 20.54"><defs><style>.cls-1{fill:#ff4157;}</style></defs><g id="katman_2" data-name="katman 2"><g id="Object"><path class="cls-1" d="M20.51,0H.28A.29.29,0,0,0,0,.28v20a.28.28,0,0,0,.28.28H20.51a.28.28,0,0,0,.29-.28V.28A.29.29,0,0,0,20.51,0Zm-.28.57V4.13H.57V.57ZM.57,20V4.7H20.23V20Z"/><path class="cls-1" d="M2.26,3.31a.94.94,0,1,0-.93-.93A.93.93,0,0,0,2.26,3.31Zm0-1.3a.37.37,0,1,1,0,.73.37.37,0,0,1,0-.73Z"/><path class="cls-1" d="M4.62,3.31a.94.94,0,1,0-.93-.93A.93.93,0,0,0,4.62,3.31Zm0-1.3a.37.37,0,0,1,0,.73.37.37,0,1,1,0-.73Z"/><path class="cls-1" d="M7,3.31A.94.94,0,1,0,6,2.38.94.94,0,0,0,7,3.31ZM7,2a.37.37,0,1,1,0,.73A.37.37,0,0,1,7,2Z"/><path class="cls-1" d="M7.21,8.84a.3.3,0,0,0-.4.08L5,11.67A.29.29,0,0,0,5,12l1.8,2.76a.3.3,0,0,0,.24.12.32.32,0,0,0,.16,0,.3.3,0,0,0,.08-.4l-1.7-2.59,1.7-2.6A.29.29,0,0,0,7.21,8.84Z"/><path class="cls-1" d="M14,8.92a.29.29,0,0,0-.39-.08.28.28,0,0,0-.08.39l1.7,2.6-1.7,2.59a.29.29,0,0,0,.08.4.28.28,0,0,0,.15,0,.27.27,0,0,0,.24-.12L15.83,12a.29.29,0,0,0,0-.31Z"/><path class="cls-1" d="M12.31,6.53A.28.28,0,0,0,12,6.7L8.36,16.41a.3.3,0,0,0,.17.37l.1,0a.3.3,0,0,0,.27-.19l3.58-9.72A.28.28,0,0,0,12.31,6.53Z"/></g></g></svg>